<svg id="eKlmcDExXNa1" xmlns="http://www.w3.org/2000/svg" xmlns:xlink="http://www.w3.org/1999/xlink" viewBox="0 0 1245 715" shape-rendering="geometricPrecision" text-rendering="geometricPrecision">
<style><![CDATA[
#eKlmcDExXNa14_to {animation: eKlmcDExXNa14_to__to 1500ms linear infinite normal forwards}@keyframes eKlmcDExXNa14_to__to { 0% {transform: translate(858.058319px,316.904602px)} 46.666667% {transform: translate(858.058238px,326.904602px)} 100% {transform: translate(858.058319px,316.904602px)}} #eKlmcDExXNa18_to {animation: eKlmcDExXNa18_to__to 1500ms linear infinite normal forwards}@keyframes eKlmcDExXNa18_to__to { 0% {transform: translate(649.058304px,430.904602px)} 46.666667% {transform: translate(645.058266px,444.086804px)} 100% {transform: translate(649.058304px,430.904602px)}} #eKlmcDExXNa22_to {animation: eKlmcDExXNa22_to__to 1500ms linear infinite normal forwards}@keyframes eKlmcDExXNa22_to__to { 0% {transform: translate(1006.680786px,450.616059px)} 46.666667% {transform: translate(1007.6994px,460.615869px)} 100% {transform: translate(1006.680786px,450.616059px)}}
]]></style>
<g mask="url(#eKlmcDExXNa26)"><g><rect width="258.835" height="232.245" rx="19" ry="19" transform="matrix(.965926 0.258819-.878817 0.477159 412.101 466)" fill="#e5ead9" fill-opacity="0.4"/><rect width="258.835" height="232.245" rx="19" ry="19" transform="matrix(.965926 0.258819-.878817 0.477159 201.101 581)" fill="#e5ead9" fill-opacity="0.25"/><rect width="258.835" height="232.245" rx="19" ry="19" transform="matrix(.965926 0.258819-.878817 0.477159-6.89893 697)" fill="#e5ead9" fill-opacity="0.1"/><rect width="258.835" height="232.245" rx="19" ry="19" transform="matrix(.965926 0.258819-.878817 0.477159 1254.1 6)" fill="#e5ead9" fill-opacity="0.15"/><rect width="258.835" height="232.245" rx="19" ry="19" transform="matrix(.965926 0.258819-.878817 0.477159 1043.1 121)" fill="#e5ead9" fill-opacity="0.35"/><rect width="266.036" height="513.303" rx="19" ry="19" transform="matrix(.960527 0.278188-.882144 0.47098 664.807 541)" fill="#e5ead9" fill-opacity="0.35"/><rect width="266.036" height="513.303" rx="19" ry="19" transform="matrix(.960527 0.278188-.882144 0.47098 1133.81 509)" fill="#e5ead9" fill-opacity="0.2"/><rect width="266.036" height="513.303" rx="19" ry="19" transform="matrix(.960527 0.278188-.882144 0.47098 1589.81 264)" fill="#e5ead9" fill-opacity="0.1"/><path d="M1529.05,69.9487c9.25-4.9422,24.93-6.5822,35.01-3.6631l219.03,63.4364c10.08,2.92,10.75,9.292,1.49,14.235L1365.3,367.815c-9.26,4.942-24.94,6.582-35.02,3.663l-219.03-63.437c-10.08-2.919-10.75-9.292-1.49-14.234L1529.05,69.9487Z" fill="#e5ead9" fill-opacity="0.15"/><rect width="258.835" height="232.245" rx="19" ry="19" transform="matrix(.965926 0.258819-.878817 0.477159 835.101 238)" fill="#e5ead9" fill-opacity="0.3"/><g id="eKlmcDExXNa14_to" transform="translate(858.058319,316.904602)"><g transform="translate(-858.058319,-316.904602)"><rect width="258.835" height="232.245" rx="19" ry="19" transform="matrix(.965926 0.258819-.878817 0.477159 835.101 228)" fill="#e5ead9"/><path d="M924.363,285.619c-71.453-15.793-173.576,14.969-170.133,51.248c2.478,26.098,63.887,40.957,125.661,30.406c5.319-.909,5.559-3.182.319-3.019-6.413.2-11.723.248-15.548.142-61.573-1.707-85.194-30.156-44.868-54.039c4.419-2.617,4.289-4.034-.325-3.559l-1.525.157-3.646,2.091c-40.954,23.487-20.846,53.661,38.553,57.852c2.894.204,2.851.211-2.797.449-48.963,2.064-86.493-11.125-88.492-31.098-2.737-27.354,59.278-53.076,124.642-51.697c9.597.202,26.479,1.897,30.465,3.059.092.027-1.633.005-3.834-.047-10.496-.251-23.222.372-32.956,1.614-5.09.65-6.114,1.018-5.997,2.158.135,1.309.786,1.332,10.246.363c16.429-1.682,36.591-1.466,47.197.505l1.422.264-13.326,7.087-13.326,7.086-3.219-.322c-5.807-.581-12.102-.122-17.611,1.282l-2.916.744-1.816-.53c-6.461-1.882-16.305,1.389-13.786,4.583l.469.595-14.964,7.957-14.963,7.957-1.582-.003c-8.494-.016-13.569,4.646-7.108,6.528l1.816.53-1.005,1.382c-5.464,7.519,12.553,12.836,29.333,8.656l3.206-.798l2.367.603c4.53,1.155,10.263.157,12.986-2.261.918-.815.815-2.428-.186-2.906l-.74-.353l14.805-7.873l14.806-7.873l2.132.058c8.831.238,14.356-4.559,7.539-6.546-1.888-.55-1.941-.59-1.4-1.043c2.696-2.259,1.876-6.073-1.73-8.037l-1.257-.685l15.178-8.197c17.558-9.482,16.407-8.631,13.376-9.897-1.59-.663-12.873-4.001-15.462-4.573Zm44.18,22.551c-.818.025-2.965.624-8.203,2.288l-7.096,2.255-6.071-1.769c-6.858-1.999-7.879-2.106-9.881-1.042-1.317.701-1.279,1.098.409,4.303.857,1.628,1.371,3.014,1.142,3.081-13.118,3.836-16.602,5.457-13.606,6.33c1.208.352,1.818.358,8.56.08c3.099-.128,6.314-.254,7.142-.279l1.506-.047l1.539,3.076c1.701,3.401,2.366,3.872,5.029,3.564c1.945-.225,2.949-.874,5.847-3.778c1.421-1.424,2.828-2.794,3.128-3.044.511-.428,1.02-.473,8.407-.743c9.57-.35,10.866-.592,10.982-2.051l.051-.633-6.143-1.79-6.142-1.79l3.362-3.296c4.017-3.936,4.024-4.84.038-4.715Zm-11.264,9.105c-.007.362.467.563,3.203,1.361l3.212.935-4.164.167c-5.12.204-5.584.344-7.548,2.284-1.79,1.769-1.73,1.766-2.575.102-.764-1.505-1.678-1.953-3.783-1.856-.678.031-2.409.1-3.846.152l-2.612.096l3.384-1.078c4.418-1.407,4.679-1.667,3.635-3.616l-.785-1.466l3.354.862c3.986,1.024,3.91,1.027,8.291-.355l3.232-1.02-1.495,1.503c-.822.827-1.498,1.695-1.503,1.929ZM866.48,290.533c-.636.066-4.137,1.079-7.959,2.303l-6.824,2.185-6.033-1.758c-6.954-2.027-7.946-2.126-10.051-1.006-1.315.699-1.291.944.424,4.24.796,1.529,1.463,2.82,1.482,2.868.02.048-2.992,1.056-6.691,2.239-7.598,2.43-8.294,2.732-8.209,3.557.118,1.144.85,1.199,10.897.805l7.253-.285l1.563,3.124c1.732,3.459,2.288,3.853,5.04,3.569c2.057-.211,2.635-.6,6.177-4.15l3.151-3.158l5.883-.211c10.477-.374,10.763-.399,12.053-1.085c2.328-1.238,1.968-1.491-5.054-3.537l-6.063-1.767l3.428-3.389c2.392-2.365,3.341-3.486,3.137-3.708-.486-.529-2.361-.964-3.604-.836Zm-9.5,7.299c-1.96,1.908-1.868,2.085,1.676,3.196l2.969.93-2.777.077c-5.953.164-6.594.355-8.83,2.624-.699.709-1.333,1.27-1.409,1.248s-.452-.652-.834-1.399c-.929-1.815-1.662-2.026-6.29-1.812-4.2.196-4.181.221-.657-.905c4.667-1.492,4.819-1.655,3.592-3.84l-.676-1.203l3.27.837c3.894.997,4.253.978,8.512-.445c3.126-1.044,3.2-1.009,1.454.692Zm50.685,14.074c.922.904,1.286,2.625.747,3.528l-.256.431-9.932-2.894c-5.462-1.592-9.823-2.952-9.691-3.022c1.132-.602,7.734-1.073,11.227-.801c2.746.214,6.727,1.603,7.905,2.758Zm3.912,9.261c-.715.801-.732.797-20.02-4.824-19.46-5.671-19.034-5.521-17.199-6.052.948-.275,37.609,10.438,37.219,10.876Zm-47.267,3.297l-14.738,7.837-3.434-1.001-3.434-1.001l14.738-7.837l14.738-7.837l3.434,1l3.434,1.001-14.738,7.838Zm23.582-4.475l.083.81-12.829,6.822-12.829,6.823-2.066.212c-2.494.257-4.035-.215-3.967-1.213l.04-.587l12.916-6.868c13.622-7.244,13.689-7.274,15.865-7.237c1.976.035,2.696.354,2.787,1.238Zm-1.757,10.835l-14.738,7.837-3.184-.928-3.183-.928l1.194-.401c.659-.221,6.986-3.481,14.111-7.27c7.126-3.789,13.198-7.123,13.544-7.436l.627-.567l3.183.928l3.184.928-14.738,7.837Zm-15.349,11.905c-.127,1.034-.096,1.041-19.777-4.694-19.629-5.721-19.192-5.567-17.356-6.098.858-.249,37.192,10.311,37.133,10.792Zm-15.517.971c-8.042,1.841-17.4.363-19.37-3.061-.424-.736-.282-2.55.22-2.817.132-.071,4.709,1.174,10.171,2.766l9.932,2.894-.953.218Z" clip-rule="evenodd" fill-rule="evenodd"/></g></g><rect width="258.835" height="232.245" rx="19" ry="19" transform="matrix(.965926 0.258819-.878817 0.477159 622.101 352)" fill="#e5ead9" fill-opacity="0.3"/><g id="eKlmcDExXNa18_to" transform="translate(649.058304,430.904602)"><g transform="translate(-646.058304,-430.904602)"><rect width="258.835" height="232.245" rx="19" ry="19" transform="matrix(.965926 0.258819-.878817 0.477159 623.101 342)" fill="#e5ead9"/><path d="M606.781,376.333l-2.498.348-10.354,5.993-10.353,5.993-.713-.432c-2.071-1.255-4.796-1.789-7.259-1.422-2.789.415-5.623,1.501-5.02,1.924.218.152,14.413,10.625,31.546,23.273l31.151,22.997l67.483,1.935c37.115,1.065,67.851,1.95,68.302,1.967c1.251.048,2.752-1.376,2.658-2.52-.084-1.01-2.436-1.76-6.267-1.996l-1.319-.082l10.354-5.993l10.354-5.993-.142-1.016c-.222-1.595-2.304-1.943-12.541-2.096-20.361-.304-29.846-.897-44.571-2.789-26.205-3.366-50.704-2.228-66.437,3.086-1.014.343-1.965.593-2.114.555-.148-.037.078-.47.505-.961c6.624-7.633-.205-16.662-18.593-24.582-10.412-4.485-15.501-7.553-24.214-14.598-4.381-3.542-6.035-4.138-9.958-3.591Zm-44.602,13.462c-3.687.022-8.025,1.693-9.345,3.603-.716,1.033-1.244.613,26.68,21.169c13.697,10.082,24.804,18.392,24.683,18.467-.121.074-19.604.552-43.295,1.063-45.741.986-44.668.939-46.166,1.991-1.718,1.207-.834,1.567,11.596,4.714c15.252,3.862,10.892,3.611,53.971,3.112c20.609-.238,37.726-.369,38.038-.29s6.708,6.153,14.215,13.499c15.707,15.37,13.338,13.908,28.876,17.835c12.764,3.227,13.724,3.351,15.942,2.067c1.61-.932,2.184-.218-13.627-16.971-8.036-8.517-14.508-15.541-14.382-15.61.127-.068,25.156.605,55.62,1.498c59.402,1.74,57.589,1.709,59.89,1.023c5.972-1.778,7.238-5.276,2.07-5.721-1.024-.088-32.232-1.031-69.352-2.095-37.118-1.064-67.693-1.987-67.942-2.049-.248-.063-14.551-10.526-31.784-23.25-34.327-25.346-32.439-24.073-35.688-24.055Z" clip-rule="evenodd" fill-rule="evenodd"/></g></g><rect width="266.036" height="487.98" rx="19" ry="19" transform="matrix(.960527 0.278188-.882144 0.47098 1097.47 306.926)" fill="#e5ead9" fill-opacity="0.3"/><g id="eKlmcDExXNa22_to" transform="translate(1006.680786,450.616059)"><g transform="translate(-1006.680786,-450.616058)"><rect width="266.036" height="480.458" rx="19" ry="19" transform="matrix(.960527 0.278188-.882144 0.47098 1090.83 300.469)" fill="#e5ead9"/><path d="M945.778,423.546c-13.754-1.749-24.314.321-38.78,7.601-10.839,5.456-13.719,7.975-13.078,11.443.139.756-.176,1.047-2.261,2.097l-2.423,1.22-4.112-1.295c-10.567-3.327-25.595-3.112-38.619.552l-4.595,1.293-16.759,8.43c-18.473,9.292-18.492,9.304-18.457,11.576.027,1.743,1.494,2.885,5.235,4.076l3.21,1.021-25.786,12.978c-25.231,12.699-25.784,12.993-25.73,13.677.055.678.649.887,19.591,6.871c22.19,7.011,21.174,6.803,24.638,5.059c3.423-1.722,3.863-1.505-15.319-7.566l-16.871-5.33l23.29-11.722l23.291-11.722l6.368,2.012c7.308,2.309,8.344,2.387,11.368.865c3.301-1.661,3.225-1.706-9.929-5.863-12.735-4.024-14.058-4.659-12.475-5.985c1.099-.921,25.539-13.2,29.295-14.718c8.69-3.513,20.722-4.468,29.919-2.375c6.093,1.387,6.154,1.423,4.903,2.853-1.465,1.674-1.415,4.088.114,5.551l1.234,1.18-5.863,3.075c-6.709,3.518-7.053,4-3.629,5.082c3.162.999,4.238.736,11.094-2.713l5.928-2.982l2.918.258c4.071.359,9.972-.091,13.96-1.065c3.749-.917,4.063-.872,8.812,1.238c4.509,2.003,6.149,4.421,5.226,7.707-1.181,4.202,8.833,3.562,10.502-.671c1.706-4.33-2.158-8.508-10.236-11.07l-3.658-1.16l2.639-1.328c2.176-1.095,2.945-1.345,4.384-1.425c12.157-.681,33.725-10.032,37.001-16.042c3.098-5.686-3.875-11.098-16.34-12.683Zm127.862,40.399c-6.16-.784-14.36-.461-21.17.832-13.94,2.649-31.82,13.151-30.7,18.032.14.577-.3.933-2.47,2.028l-2.64,1.328-3.67-1.155c-8.1-2.55-19.186-3.094-29.365-1.442-9.953,1.616-9.225,5.65.763,4.231c7.81-1.11,14.087-1.026,20.012.266c6.23,1.361,6.41,1.473,5.03,3.138-1.46,1.771-1.21,4.164.6,5.663l1.29,1.073-5.92,2.984c-6.854,3.45-7.249,3.928-4.09,4.927c3.43,1.082,4.53.838,11.58-2.571l6.17-2.98l3.16.21c3.92.259,9.82-.274,13.58-1.225c2.62-.667,2.95-.683,4.38-.226c10.54,3.367,12.42,8.77,4.75,13.634-3.72,2.356-27.08,14.062-29.33,14.694-3.19.895-4.51.633-17.466-3.46-13.046-4.122-13.189-4.143-16.487-2.483-3.024,1.522-2.595,1.906,4.713,4.215l6.368,2.012-23.29,11.722-23.291,11.722-16.871-5.331c-19.182-6.06-18.551-5.939-21.974-4.217-3.464,1.744-4.206,1.397,17.984,8.408c18.943,5.985,19.586,6.168,21.255,6.034c1.682-.135,2.274-.417,27.505-13.116l25.786-12.978l3.228,1.013c3.76,1.18,6.89,1.488,11.15,1.1c5.55-.506,5.58-.516,24.04-9.812l16.74-8.434l2.11-2.079c5.97-5.894,3.05-11.777-7.48-15.119l-4.11-1.3l2.43-1.219c2.08-1.05,2.72-1.239,4.6-1.358c3.34-.211,8.99-1.242,12.82-2.34c4.6-1.318,19.81-8.856,22.35-11.077c7.27-6.355.76-13.459-14.07-15.344ZM950.871,431.096c2.537,2.41,1.582,5.908-2.123,7.773l-1.597.804-13.763-4.349-13.763-4.348l1.564-.784c7.887-3.952,25.122-3.427,29.682.904Zm127.869,40.399c2.53,2.41,1.58,5.908-2.13,7.773l-1.59.804-13.77-4.349-13.76-4.348l1.56-.784c7.89-3.952,25.13-3.427,29.69.904Zm-80.389-22.982c-16.385-2.053-28.12.289-45.672,9.114-13.267,6.672-15.688,8.562-16.257,12.694l-.193,1.401-7.333,3.698c-8.268,4.171-8.776,4.58-9.362,7.549-.389,1.971.55,3.868,2.667,5.389l1.539,1.106-7.539,3.977c-8.412,4.436-8.584,4.612-5.496,5.587c3.561,1.126,5.465.607,14.556-3.966l6.507-3.272l1.764.341c9.261,1.792,21.56-.441,32.355-5.875l6.896-3.47l2.76-.296c14.732-1.575,39.837-13.421,42.317-19.967c2.49-6.593-5.37-12.238-19.509-14.01Zm6.509,7.542c4.36,2.909,3.84,7.378-1.21,10.395l-1.79,1.069-17.433-5.506-17.428-5.507l2.2-.939c10.435-4.457,28.615-4.208,35.661.488ZM937.513,444.72c-19.202,8.289-43.85.501-28.005-8.848l2.914-1.72l14.312,4.521l14.311,4.522-3.532,1.525Zm130.147,39.416c-18.98,9.504-47.27,2.156-30.29-7.865l2.92-1.72l14.26,4.505l14.25,4.505-1.14.575ZM992.294,472.59c-12.927,6.452-26.179,7.999-37.604,4.389-11.424-3.609-10.678-9.108,2.116-15.601l2.792-1.418l17.759,5.611l17.759,5.611-2.822,1.408Zm-88.643-22.299c2.564.81,5.392,1.58,6.285,1.711l1.623.237-3.229,1.408c-5.317,2.319-10.341,2.862-14.453,1.563-4.111-1.299-3.934-3.374.511-5.968l2.697-1.575.952.575c.524.317,3.05,1.238,5.614,2.049ZM1031.52,490.69c2.56.81,5.39,1.58,6.28,1.71l1.62.238-3.23,1.408c-5.31,2.319-10.34,2.862-14.45,1.563s-3.93-3.374.51-5.968l2.7-1.575.95.575c.52.317,3.05,1.238,5.62,2.049Zm-80.797-3.537c-16.096,3.41-27.528-2.688-15.955-8.513c2.253-1.133,4.143-2.044,4.202-2.023.058.02,1,.625,2.093,1.342c2.85,1.871,9.673,3.98,14.847,4.59l3.807.448-3.502,1.867c-2.6,1.386-4.016,1.976-5.492,2.289Zm-44.79-16.188c-15.823-2.457-34.937-.889-50.1,4.111-6.901,2.276-42.17,20.273-43.553,22.224-1.181,1.668-1.011,3.783.421,5.241l1.123,1.143l44.62,14.188l44.621,14.188-21.621,10.882-21.621,10.881-35.277-11.146-35.278-11.146l17.295-8.81c19.747-10.06,19.168-9.653,15.425-10.835-3.901-1.233-2.557-1.749-25.332,9.714-19.408,9.768-19.961,10.066-19.907,10.746.056.689.649.887,40.902,13.605s40.871,12.903,42.565,12.767c1.68-.135,2.275-.418,25.809-12.262l24.089-12.124l5.798,1.719c8.044,2.386,13.797,2.613,21.736.859c4.446-.983,40.317-18.79,44.295-21.989c10.567-8.501,7.202-18.367-7.893-23.136-4.3-1.359-5.941-1.356-8.663.014-2.55,1.283-2.163,1.909,2.313,3.743c11.148,4.567,13.152,11.293,5.332,17.898-1.445,1.22-4.549,2.922-17.279,9.468-25.974,13.359-22.689,12.95-46.039,5.726l-15.986-4.946l2.861-.689c8.682-2.088,13.33-7.17,9.823-10.74l-1.122-1.142-23.305-7.457-23.305-7.457l10.622-5.346c11.35-5.713,11.796-6.015,10.371-7.031-1.09-.778-3.866-1.173-5.657-.805-2.625.539-27.458,13.374-27.395,14.159.054.674.648.886,16.705,5.96l16.649,5.26-6.655,3.349-6.654,3.349-20.746-6.563c-24.592-7.779-25.011-7.967-23.639-10.562.754-1.426,33.284-17.869,38.948-19.688c14.216-4.564,31.34-5.402,44.853-2.194c5.15,1.222,6.186,1.302,8.487.655c5.817-1.635,2.12-4.11-8.636-5.781ZM850.188,455.52c-2.696-.211-2.938-.121-12.001,4.44-10.616,5.343-10.699,4.599.916,8.268c10.074,3.183,10.828,3.28,13.802,1.783c3.288-1.654,2.473-2.433-5.022-4.801l-5.261-1.662l5.614-2.826c5.683-2.86,6.8-3.814,5.095-4.353-.224-.071-.587-.257-.806-.413s-1.271-.352-2.337-.436Zm177.592,56.11c-2.61-.204-3.1-.042-9.3,3.079l-5.37,2.704-5.26-1.662c-7.7-2.432-11.188-2.54-13.648-.42-1.549,1.335-1.209,1.519,8.368,4.545c11.54,3.645,9.66,3.799,20.55-1.684c8.58-4.318,9.68-5.12,7.8-5.713-.22-.071-.59-.257-.81-.413-.21-.156-1.27-.352-2.33-.436Zm-73.019-3.989c-2.742-.214-2.788-.196-14.495,5.696l-10.571,5.32-4.423-1.397c-5.954-1.881-11.353-1.265-10.955,1.249.182,1.152,13.038,5.262,15.771,5.043c4.48-.36,30.227-14.301,27.817-15.062-.224-.071-.587-.257-.806-.413s-1.271-.352-2.338-.436Zm-58.068,6.943c3.353,4.378-8.098,6.979-18.284,4.152L874.1,517.54l6.767-3.406l6.767-3.405l4.192,1.486c3.125,1.109,4.363,1.711,4.867,2.369Z" clip-rule="evenodd" fill-rule="evenodd"/><path d="M1053.23,362.057l-15.81,8.807-4.53-1.288l15.81-8.806l4.53,1.287Zm-1.81,3.738l4.18,1.188-1.37.76c1.2-.189,2.2-.258,2.99-.209.81.042,1.61.175,2.39.398.83.236,1.41.508,1.75.814.36.303.53.639.49,1.006-.02.299-.2.59-.52.874-.32.285-.77.586-1.35.905l-6.83,3.808-4.18-1.189l5.43-3.025c.53-.295.91-.546,1.14-.751.26-.209.38-.399.36-.569-.02-.146-.11-.271-.27-.376-.16-.104-.37-.194-.63-.268-.71-.202-1.45-.248-2.23-.14-.74.106-1.47.357-2.19.754l-5.74,3.2-4.18-1.189l10.76-5.991Zm31.74,7.706l-12.33,6.868-4.52-1.288l12.32-6.867-3.71-1.057l3.48-1.939l11.96,3.402-3.49,1.938-3.71-1.057Zm10.41-1.308l4.18,1.188-8.01,4.462c1.2-.189,2.19-.258,2.99-.208.81.041,1.6.174,2.39.397c1.49.425,2.24.955,2.24,1.59.02.631-.6,1.301-1.87,2.01l-6.83,3.807-4.18-1.188l5.43-3.025c.54-.304.94-.562,1.18-.775.24-.214.35-.401.31-.564-.07-.268-.37-.477-.89-.626-.71-.201-1.45-.248-2.23-.139-.75.105-1.48.356-2.19.753l-5.75,3.2-4.17-1.188l17.4-9.694Zm13.52,12.651c.39-.335.54-.654.43-.955-.11-.302-.47-.54-1.09-.715-.65-.184-1.33-.25-2.05-.197-.71.058-1.4.227-2.07.508l4.78,1.359Zm-7.09-.166c-1.64.911-1.61,1.608.08,2.089.91.258,1.93.266,3.06.024l4.04,1.149c-3.27,1.139-6.54,1.244-9.8.316-1-.285-1.79-.619-2.35-1.004-.55-.392-.88-.813-.97-1.265-.09-.446.06-.91.44-1.391.37-.482.99-.964,1.86-1.446.89-.499,1.85-.903,2.87-1.212c1.04-.318,2.09-.535,3.16-.654c1.08-.118,2.15-.137,3.21-.058c1.1.077,2.15.259,3.17.548c1,.285,1.76.619,2.28,1.002.53.376.82.786.86,1.232.03.446-.18.92-.64,1.424-.45.496-1.14,1.005-2.08,1.526l-.4.222-8.79-2.502Zm36,4.331c-.13-.342-.36-.63-.68-.864-.31-.241-.7-.428-1.16-.559-.59-.166-1.19-.232-1.81-.197s-1.13.166-1.54.391c-.28.156-.42.311-.41.465c0,.153.08.311.23.472.18.157.41.316.68.476.29.164.56.329.82.497c1.03.669,1.5,1.31,1.43,1.923-.05.61-.68,1.25-1.88,1.919-.81.452-1.7.817-2.66,1.095-.95.283-1.96.474-3.02.572-1.03.095-2.09.092-3.19-.008-1.1-.089-2.18-.284-3.24-.586-2.2-.626-3.64-1.537-4.33-2.733l5.25-1.294c.13.496.39.913.79,1.249s.92.596,1.56.78c.74.21,1.44.28,2.1.209.68-.066,1.22-.208,1.61-.426.23-.133.39-.259.47-.378.09-.128.09-.261.02-.4-.06-.147-.21-.306-.44-.477-.21-.166-.49-.362-.83-.588-.41-.26-.81-.525-1.18-.796-.35-.275-.57-.569-.68-.883-.1-.309-.03-.643.19-1.002.26-.363.78-.762,1.56-1.198s1.63-.79,2.53-1.062c.94-.275,1.88-.464,2.84-.569.98-.108,1.97-.127,2.96-.057c1.01.074,1.97.243,2.89.505.87.245,1.65.564,2.37.955.73.384,1.31.816,1.76,1.294l-5.01,1.275Zm10.61-1.727l4.18,1.189-8.01,4.462c1.2-.189,2.2-.258,2.99-.209.81.042,1.61.175,2.39.398c1.49.424,2.24.954,2.24,1.589.03.632-.59,1.302-1.87,2.01l-6.83,3.808-4.18-1.189l5.43-3.025c.55-.303.94-.562,1.18-.775.25-.213.35-.401.32-.563-.08-.269-.38-.478-.9-.626-.71-.202-1.45-.248-2.23-.14-.74.106-1.47.357-2.19.754l-5.74,3.2-4.18-1.189l17.4-9.694Zm7.22,12.145c-.35.195-.61.397-.78.608-.16.203-.23.4-.22.59.02.194.13.373.33.535.21.166.51.304.89.414.37.105.78.168,1.23.19.47.026.93.01,1.38-.049.47-.055.92-.144,1.35-.268.45-.12.84-.273,1.18-.46.33-.187.57-.384.71-.591.17-.211.24-.414.22-.608-.01-.19-.12-.369-.33-.535-.2-.162-.48-.296-.85-.401-.39-.109-.81-.177-1.27-.203-.45-.022-.91-.006-1.38.049-.46.059-.9.15-1.33.274-.42.117-.8.268-1.13.455Zm10.61-1.481l4.2,1.195-10.76,5.992-4.2-1.195l1.2-.666c-1.92.314-3.64.255-5.16-.179-.86-.245-1.51-.548-1.96-.91-.43-.369-.65-.774-.67-1.215-.03-.442.16-.901.55-1.378.41-.472,1.02-.938,1.85-1.398.77-.428,1.64-.791,2.62-1.089.99-.307,2-.529,3.04-.668c1.04-.14,2.07-.188,3.09-.146c1.03.034,1.98.176,2.86.426c1.48.42,2.23,1.029,2.27,1.827l1.07-.596Zm5.57,6.086c-.35.194-.61.397-.77.608-.16.202-.23.399-.23.589.03.195.14.373.33.535.22.167.52.305.9.414.37.105.78.169,1.23.19.46.027.92.01,1.38-.049.47-.054.92-.143,1.35-.268.45-.119.84-.273,1.17-.459.34-.187.58-.384.72-.592.16-.21.24-.413.22-.608-.01-.19-.12-.368-.33-.535-.2-.162-.49-.295-.85-.4-.37-.105-.79-.171-1.26-.197-.44-.022-.9-.006-1.37.049-.46.059-.91.148-1.36.268-.41.116-.79.268-1.13.455Zm17.26-5.184l4.2,1.195-17.4,9.694-4.2-1.195l1.19-.666c-1.91.315-3.63.255-5.15-.178-.86-.245-1.51-.552-1.94-.922-.43-.369-.66-.774-.68-1.216-.02-.441.17-.9.56-1.377.4-.472,1.01-.934,1.82-1.386.77-.428,1.64-.794,2.6-1.096.99-.307,2.01-.529,3.05-.669c1.04-.139,2.07-.187,3.08-.145c1.05.039,2.01.183,2.89.433c1.48.42,2.23,1.029,2.26,1.826l7.72-4.298Zm5.24,10.295c.39-.336.53-.654.42-.956-.11-.301-.47-.54-1.08-.715-.65-.184-1.34-.249-2.06-.196-.71.057-1.39.227-2.06.507l4.78,1.36Zm-7.1-.166c-1.63.911-1.6,1.607.09,2.089.91.258,1.93.266,3.06.024l4.04,1.149c-3.28,1.138-6.55,1.243-9.81.315-1-.284-1.78-.619-2.35-1.003-.55-.392-.87-.814-.97-1.265-.08-.447.07-.911.44-1.392.38-.481,1-.963,1.87-1.446.89-.498,1.85-.902,2.87-1.212c1.03-.317,2.09-.535,3.16-.653s2.14-.138,3.21-.058c1.09.076,2.15.259,3.16.548c1,.284,1.76.618,2.28,1.002.54.375.83.786.86,1.232.04.445-.17.92-.64,1.424-.44.496-1.14,1.004-2.07,1.526l-.4.222-8.8-2.502Zm-167.4-20.11l18.76-7.966l4.48,1.274-4.95,5.687l11.9-3.711l4.47,1.274-12.85,9.647-4.5-1.28l7.6-5.496-13.21,3.9-1.8-.512l5.2-6.179-10.6,4.642-4.5-1.28Zm39.25,5.326c.39-.335.53-.654.42-.955-.11-.302-.47-.54-1.08-.716-.65-.183-1.33-.249-2.06-.196-.71.058-1.39.227-2.06.508l4.78,1.359Zm-7.1-.166c-1.63.911-1.6,1.608.09,2.089.91.258,1.93.266,3.06.024l4.04,1.149c-3.28,1.138-6.54,1.244-9.81.315-1-.284-1.78-.619-2.35-1.003-.55-.392-.87-.814-.97-1.265-.08-.446.07-.91.44-1.392.38-.481,1-.963,1.87-1.446.89-.498,1.85-.902,2.87-1.211c1.03-.318,2.09-.535,3.16-.654c1.07-.118,2.14-.137,3.21-.058c1.09.077,2.15.259,3.16.548c1,.285,1.76.619,2.29,1.002.53.376.82.786.85,1.232.04.446-.17.92-.64,1.424-.44.496-1.14,1.005-2.07,1.526l-.4.222-8.8-2.502Zm17.2-.17l4.18,1.188-1.36.759c1.2-.188,2.19-.257,2.99-.208.81.042,1.6.174,2.39.398.83.236,1.41.508,1.75.814.36.303.52.638.49,1.006-.02.299-.2.59-.52.874-.33.284-.77.586-1.35.905l-6.83,3.808-4.18-1.189l5.43-3.025c.53-.296.91-.546,1.14-.752.26-.208.38-.398.36-.568-.02-.146-.11-.271-.27-.376s-.37-.194-.63-.269c-.71-.201-1.45-.247-2.23-.139-.75.105-1.48.356-2.19.754l-5.74,3.2-4.18-1.189l10.75-5.991Zm16.83,7.45l-7.59,4.228-4.18-1.188l7.59-4.228-1.38-.394l3.16-1.764l1.39.394l3.23-1.798l4.18,1.188-3.23,1.799l2.37.676-3.16,1.764-2.38-.677Zm5.94,3.507c-.36.203-.63.409-.8.62-.14.207-.2.406-.2.596.03.195.14.373.33.535.22.167.51.302.88.408.37.105.77.168,1.22.19.47.026.93.01,1.38-.049.47-.055.92-.144,1.35-.268.47-.128.87-.289,1.22-.483.34-.187.57-.384.71-.592.17-.21.25-.413.22-.608c0-.19-.11-.368-.33-.535-.19-.162-.48-.295-.85-.4s-.78-.171-1.25-.197c-.45-.022-.91-.006-1.38.049-.45.059-.9.148-1.35.268-.43.124-.81.279-1.15.466Zm-4.37-1.277c.8-.444,1.72-.806,2.76-1.087c1.05-.289,2.14-.484,3.28-.584c1.14-.109,2.3-.122,3.45-.041c1.17.086,2.27.276,3.3.569c1.02.289,1.81.638,2.38,1.047.6.405.95.841,1.07,1.309.14.464.03.945-.33,1.443-.34.49-.94.972-1.79,1.447s-1.82.859-2.9,1.151c-1.06.288-2.16.487-3.31.596-1.13.1-2.28.102-3.46.004-1.15-.094-2.25-.288-3.28-.581-1.01-.289-1.81-.634-2.39-1.035-.59-.401-.93-.835-1.05-1.303-.1-.463.03-.943.39-1.441.38-.506,1-1.004,1.88-1.494Zm21.91,1.786l4.18,1.189-1.76.981c1.09-.232,2.12-.349,3.11-.352.99-.011,1.92.107,2.78.352.11.03.22.063.35.098.14.04.28.091.42.155l-3.63,2.021c-.3-.298-.78-.539-1.42-.723-.97-.276-1.97-.336-2.99-.18-1,.152-2,.509-3,1.07l-4.62,2.569-4.17-1.189l10.75-5.991Zm15.77,6.814c-.41-.421-.98-.737-1.72-.947-.38-.11-.77-.16-1.16-.153-.37.013-.67.085-.91.217-.12.07-.21.133-.27.189-.02.052,0,.115.05.189.07.078.2.168.39.269.2.105.47.241.8.406.95.445,1.43.9,1.46,1.366.03.458-.37.92-1.2,1.387-.63.351-1.34.627-2.12.828-.78.202-1.59.33-2.43.384-.83.047-1.68.023-2.55-.073-.89-.088-1.75-.25-2.58-.487-1.6-.455-2.77-1.134-3.5-2.035l4.21-1.062c.44.738,1.19,1.256,2.23,1.553.39.11.78.157,1.18.141s.72-.09.96-.222c.14-.078.22-.147.26-.206.07-.064.08-.132.02-.206-.04-.082-.15-.173-.34-.275-.16-.104-.4-.231-.72-.379-1.05-.5-1.61-.953-1.67-1.359-.03-.409.36-.844,1.19-1.303.6-.335,1.26-.599,1.98-.794.74-.203,1.5-.332,2.3-.387.8-.056,1.61-.042,2.44.04.84.088,1.66.245,2.46.473c1.31.372,2.35.861,3.12,1.468l-3.88.978Zm13.31-4.136l4.18,1.189-8.01,4.462c1.2-.189,2.19-.258,2.99-.209.81.042,1.6.175,2.39.398c1.49.425,2.24.954,2.23,1.589.03.632-.59,1.302-1.86,2.011l-6.84,3.807-4.17-1.189l5.43-3.025c.54-.303.94-.562,1.18-.775s.35-.401.31-.563c-.07-.269-.37-.478-.9-.626-.7-.202-1.45-.248-2.22-.14-.75.106-1.48.357-2.19.754l-5.75,3.2-4.17-1.189l17.4-9.694Zm12.86,9.252l-10.76,5.992-4.17-1.189l10.75-5.991l4.18,1.188Zm-.33-3.568c.3-.164.63-.298,1.01-.403.39-.113.79-.193,1.2-.241s.81-.063,1.2-.047c.4.021.76.077,1.09.169.32.092.57.209.73.35.18.145.28.303.3.474.02.17-.04.347-.18.53-.13.175-.34.344-.64.508-.29.163-.63.301-1.02.414-.37.105-.77.182-1.18.229-.41.048-.82.062-1.22.041-.39-.017-.75-.071-1.07-.163s-.57-.211-.76-.356c-.16-.141-.25-.297-.27-.467s.03-.343.16-.518c.14-.183.36-.357.65-.52Zm7.22,10.08c.33-.187.58-.382.73-.585.19-.206.27-.407.25-.602-.03-.194-.15-.375-.36-.541-.18-.17-.47-.31-.85-.419-.37-.105-.78-.168-1.23-.19s-.91-.006-1.38.049c-.45.059-.91.152-1.37.279-.43.124-.82.28-1.15.467-.34.187-.58.382-.74.584-.15.203-.22.402-.2.597.04.187.15.365.33.535.22.166.51.302.88.407s.78.168,1.23.19c.44.022.9.004,1.35-.055.47-.055.92-.144,1.35-.268.45-.12.84-.269,1.16-.448Zm-15.98,4.471l-4.18-1.189l16.12-8.982l4.18,1.189-1.19.666c1.91-.315,3.64-.253,5.18.185.84.24,1.47.549,1.89.926.44.374.68.782.7,1.223s-.17.898-.58,1.371c-.39.477-.98.937-1.78,1.381-.8.443-1.69.812-2.68,1.106-.98.299-2,.515-3.05.65-1.04.139-2.07.188-3.09.146-1.02-.043-1.95-.184-2.79-.425-1.48-.42-2.25-1.027-2.31-1.821l-6.42,3.574Z"/></g></g></g><mask id="eKlmcDExXNa26" mask-type="alpha" x="-150%" y="-150%" height="400%" width="400%"><path d="M0,0h1245v715L0,715L0,0Z" fill="#154f30"/></mask></g></svg>
