<svg id="egGAhJ4ZyzS1" xmlns="http://www.w3.org/2000/svg" xmlns:xlink="http://www.w3.org/1999/xlink" viewBox="0 0 1965 883" shape-rendering="geometricPrecision" text-rendering="geometricPrecision">
<style><![CDATA[
#egGAhJ4ZyzS2_to {animation: egGAhJ4ZyzS2_to__to 2000ms linear 1 normal backwards}@keyframes egGAhJ4ZyzS2_to__to { 0% {transform: translate(882.482036px,112.745074px)} 100% {transform: translate(883.387px,0.217896px)}} #egGAhJ4ZyzS3_to {animation: egGAhJ4ZyzS3_to__to 2000ms linear 1 normal backwards}@keyframes egGAhJ4ZyzS3_to__to { 0% {transform: translate(883.482px,114.196398px)} 100% {transform: translate(883.482px,57px)}} #egGAhJ4ZyzS5_to {animation: egGAhJ4ZyzS5_to__to 2000ms linear 1 normal backwards}@keyframes egGAhJ4ZyzS5_to__to { 0% {transform: translate(982.768296px,498.598199px)} 100% {transform: translate(982.768296px,379.080811px)}} #egGAhJ4ZyzS9_to {animation: egGAhJ4ZyzS9_to__to 2000ms linear 1 normal backwards}@keyframes egGAhJ4ZyzS9_to__to { 0% {transform: translate(991.336151px,498.598199px)} 100% {transform: translate(991.336151px,378.534531px)}}
]]></style>
<g id="egGAhJ4ZyzS2_to" transform="translate(882.482036,112.745074)"><rect width="1119.14" height="1004.17" rx="62" ry="62" transform="rotate(14.999995) skewX(-46.49999) skewY(0) scale(1,0.688355) translate(0,0)" fill="#e5ead9"/></g><g id="egGAhJ4ZyzS3_to" transform="translate(883.482,114.196398)"><rect width="1119.14" height="1004.17" rx="62" ry="62" transform="rotate(14.999995) skewX(-46.49999) skewY(0) scale(1,0.688355) translate(0,0)" fill="#e5ead9" fill-opacity="0.3"/></g><rect width="1119.14" height="1004.17" rx="62" ry="62" transform="matrix(.965926 0.258819-.878817 0.477159 883.482 114)" fill="#e5ead9" fill-opacity="0.2"/><g id="egGAhJ4ZyzS5_to" transform="translate(982.768296,498.598199)"><g transform="translate(-982.768295,-379.08081)"><rect width="446.387" height="861.281" rx="62" ry="62" transform="matrix(.960527 0.278188-.882144 0.47098 1374.77 171.336)" fill="#154f30"/><rect width="434.305" height="389.689" rx="62" ry="62" transform="matrix(.965926 0.258819-.878817 0.477159 867.055 57)" fill="#154f30"/><rect width="434.305" height="389.689" rx="62" ry="62" transform="matrix(.965926 0.258819-.878817 0.477159 504.465 255)" fill="#154f30"/></g></g><g id="egGAhJ4ZyzS9_to" transform="translate(991.336151,498.598199)"><g transform="translate(-991.336151,-378.53453)"><path d="M1016.83,133.545c-119.893-26.5-291.248,25.117-285.47,85.99c4.157,43.791,107.197,68.723,210.849,51.019c8.924-1.525,9.327-5.34.535-5.066-10.761.335-19.67.416-26.089.239-103.314-2.866-142.947-50.6-75.284-90.673c7.414-4.391,7.197-6.769-.545-5.972l-2.56.263-6.118,3.509c-68.717,39.41-34.977,90.039,64.69,97.07c4.856.343,4.783.355-4.694.754-82.155,3.463-145.127-18.667-148.482-52.18-4.592-45.897,99.464-89.057,209.139-86.744c16.104.34,44.43,3.184,51.119,5.134.15.045-2.74.008-6.433-.08-17.613-.421-38.965.625-55.299,2.709-8.54,1.09-10.259,1.709-10.062,3.621.226,2.196,1.32,2.235,17.192.609c27.567-2.823,61.392-2.461,79.192.847l2.39.444-22.36,11.89-22.363,11.89-5.401-.54c-9.744-.974-20.307-.205-29.55,2.151l-4.892,1.248-3.048-.888c-10.841-3.16-27.358,2.33-23.132,7.688l.787.999-25.108,13.351-25.107,13.351-2.655-.005c-14.252-.026-22.767,7.796-11.926,10.955l3.048.888-1.687,2.32c-9.168,12.615,21.063,21.537,49.218,14.524l5.38-1.34l3.972,1.012c7.601,1.938,17.22.263,21.789-3.793c1.54-1.368,1.367-4.075-.313-4.876l-1.241-.592l24.842-13.211l24.842-13.21l3.578.096c14.817.4,24.087-7.648,12.647-10.982-3.164-.923-3.255-.99-2.347-1.751c4.527-3.79,3.147-10.19-2.901-13.486l-2.111-1.149l25.469-13.753c29.46-15.911,27.53-14.482,22.44-16.607-2.66-1.113-21.6-6.713-25.94-7.673Zm74.13,37.838c-1.37.042-4.97,1.048-13.76,3.841l-11.91,3.783-10.19-2.969c-11.51-3.354-13.22-3.534-16.58-1.748-2.21,1.175-2.14,1.842.69,7.22c1.44,2.731,2.3,5.057,1.92,5.169-22.02,6.437-27.86,9.157-22.83,10.622c2.02.591,3.05.601,14.36.134c5.2-.214,10.59-.425,11.98-.469l2.53-.078l2.58,5.162c2.86,5.706,3.97,6.497,8.44,5.98c3.26-.378,4.95-1.467,9.81-6.34c2.38-2.389,4.75-4.688,5.25-5.108.86-.717,1.71-.793,14.11-1.246c16.05-.587,18.23-.994,18.42-3.441l.09-1.063-10.31-3.004-10.31-3.003l5.65-5.529c6.74-6.605,6.75-8.121.06-7.913Zm-18.9,15.278c-.01.607.78.945,5.37,2.283l5.39,1.57-6.98.28c-8.59.342-9.37.578-12.67,3.832-3,2.968-2.9,2.964-4.32.171-1.28-2.524-2.81-3.277-6.35-3.114-1.13.052-4.04.168-6.45.256l-4.38.161l5.68-1.809c7.41-2.361,7.85-2.797,6.1-6.068l-1.32-2.46l5.63,1.446c6.68,1.719,6.56,1.724,13.91-.595l5.42-1.712-2.51,2.523c-1.38,1.388-2.51,2.844-2.52,3.236Zm-152.354-44.87c-1.067.109-6.942,1.809-13.354,3.863l-11.45,3.667-10.123-2.95c-11.668-3.4-13.332-3.567-16.865-1.688-2.207,1.174-2.167,1.584.712,7.114c1.336,2.566,2.455,4.732,2.487,4.812.032.081-5.021,1.772-11.228,3.758-12.749,4.077-13.916,4.583-13.773,5.967.197,1.921,1.426,2.012,18.283,1.351l12.17-.477l2.623,5.241c2.906,5.803,3.839,6.465,8.457,5.989c3.451-.355,4.421-1.007,10.364-6.964l5.286-5.299l9.872-.353c17.579-.627,18.061-.671,20.224-1.821c3.907-2.078,3.302-2.501-8.48-5.935l-10.174-2.964l5.753-5.688c4.014-3.968,5.605-5.849,5.263-6.221-.814-.888-3.96-1.617-6.047-1.402Zm-15.941,12.246c-3.288,3.203-3.133,3.499,2.813,5.363l4.981,1.561-4.658.129c-9.989.275-11.066.595-14.817,4.403-1.172,1.189-2.236,2.131-2.364,2.093-.128-.037-.758-1.093-1.399-2.346-1.559-3.047-2.789-3.401-10.554-3.04-7.047.327-7.016.369-1.103-1.52c7.83-2.503,8.086-2.776,6.027-6.443l-1.134-2.019l5.487,1.405c6.533,1.673,7.136,1.641,14.283-.747c5.244-1.752,5.368-1.693,2.438,1.161Zm85.046,23.616c1.547,1.517,2.158,4.404,1.254,5.92l-.43.723-16.664-4.857c-9.166-2.671-16.483-4.952-16.261-5.07c1.899-1.01,12.976-1.8,18.838-1.343c4.607.358,11.287,2.689,13.263,4.627Zm6.565,15.538c-1.2,1.345-1.228,1.338-33.593-8.093-32.652-9.516-31.938-9.265-28.859-10.156c1.591-.46,63.106,17.515,62.452,18.249Zm-79.311,5.532l-24.729,13.15-5.762-1.679-5.762-1.679l24.729-13.15l24.729-13.151l5.762,1.679l5.762,1.68-24.729,13.15Zm39.569-7.508l.139,1.36-21.526,11.447-21.526,11.447-3.467.357c-4.185.43-6.77-.361-6.656-2.036l.067-.985l21.673-11.525c22.857-12.154,22.968-12.205,26.619-12.141c3.316.057,4.524.593,4.677,2.076Zm-2.948,18.18l-24.729,13.15-5.342-1.557-5.342-1.556l2.004-.674c1.105-.371,11.721-5.841,23.677-12.199s22.145-11.952,22.726-12.477l1.051-.951l5.342,1.557l5.343,1.557-24.73,13.15Zm-25.754,19.976c-.214,1.735-.162,1.747-33.184-7.877-32.936-9.598-32.203-9.341-29.124-10.232c1.441-.417,62.406,17.302,62.308,18.109ZM900.896,231c-13.495,3.09-29.198.609-32.502-5.136-.712-1.236-.474-4.279.368-4.727.222-.118,7.902,1.971,17.067,4.642l16.664,4.856-1.597.365Z" clip-rule="evenodd" fill="#fff" fill-rule="evenodd"/><path d="M1082.77,403.805c-23.08-2.935-40.8.538-65.07,12.755-18.19,9.154-23.021,13.381-21.946,19.201.232,1.267-.295,1.756-3.795,3.518l-4.065,2.046-6.9-2.173c-17.73-5.582-42.945-5.221-64.8.927l-7.709,2.169-28.121,14.145c-30.995,15.591-31.028,15.612-30.969,19.424.046,2.924,2.506,4.84,8.785,6.838l5.385,1.714-43.267,21.777c-42.335,21.307-43.264,21.801-43.173,22.949.093,1.137,1.089,1.487,32.873,11.529c37.233,11.764,35.528,11.414,41.341,8.488c5.743-2.891,6.481-2.526-25.705-12.695l-28.308-8.945l39.079-19.668l39.08-19.669l10.686,3.377c12.261,3.874,14,4.006,19.073,1.452c5.54-2.788,5.411-2.864-16.66-9.838-21.368-6.753-23.587-7.817-20.932-10.043c1.845-1.545,42.853-22.148,49.155-24.695c14.582-5.895,34.77-7.497,50.202-3.985c10.224,2.327,10.326,2.388,8.226,4.787-2.457,2.809-2.373,6.86.192,9.314l2.071,1.979-9.839,5.16c-11.256,5.903-11.834,6.713-6.089,8.528c5.307,1.677,7.111,1.235,18.616-4.552l9.947-5.004l4.895.432c6.832.604,16.732-.152,23.422-1.786c6.29-1.538,6.82-1.463,14.79,2.077c7.56,3.362,10.32,7.418,8.77,12.931-1.98,7.051,14.82,5.977,17.62-1.126c2.86-7.264-3.62-14.276-17.18-18.573l-6.13-1.946l4.42-2.229c3.65-1.837,4.95-2.257,7.36-2.392c20.4-1.142,56.59-16.833,62.08-26.917c5.2-9.54-6.5-18.622-27.41-21.281Zm214.54,67.786c-10.33-1.314-24.1-.772-35.52,1.397-23.38,4.445-53.39,22.067-51.51,30.256.22.968-.51,1.566-4.16,3.403l-4.42,2.229-6.16-1.938c-13.59-4.279-32.19-5.193-49.27-2.42-16.7,2.711-15.48,9.48,1.28,7.098c13.11-1.862,23.64-1.721,33.57.447c10.47,2.284,10.77,2.472,8.46,5.265-2.46,2.971-2.04,6.988.99,9.502l2.18,1.801-9.94,5.006c-11.5,5.79-12.17,6.591-6.86,8.268c5.75,1.815,7.59,1.405,19.43-4.314l10.34-4.999l5.31.351c6.58.434,16.49-.46,22.78-2.055c4.41-1.119,4.96-1.147,7.36-.379c17.68,5.649,20.83,14.716,7.96,22.877-6.23,3.953-45.44,23.594-49.21,24.654-5.35,1.503-7.57,1.062-29.3-5.805-21.89-6.916-22.13-6.952-27.67-4.167-5.07,2.554-4.35,3.198,7.91,7.073l10.69,3.376-39.08,19.668-39.08,19.669-28.31-8.944c-32.19-10.169-31.13-9.966-36.87-7.076-5.82,2.926-7.06,2.344,30.17,14.108c31.79,10.042,32.87,10.349,35.67,10.125c2.82-.227,3.81-.701,46.15-22.008l43.27-21.776l5.41,1.699c6.32,1.98,11.56,2.497,18.7,1.846c9.32-.849,9.37-.866,40.34-16.464l28.1-14.151l3.53-3.489c10.02-9.89,5.13-19.761-12.55-25.368l-6.88-2.181l4.06-2.046c3.5-1.762,4.58-2.079,7.72-2.278c5.61-.354,15.09-2.085,21.52-3.926c7.71-2.213,33.24-14.861,37.5-18.587c12.2-10.664,1.27-22.584-23.61-25.747Zm-206-55.118c4.26,4.044,2.66,9.915-3.56,13.043l-2.68,1.349-23.09-7.297-23.1-7.296l2.63-1.315c13.23-6.631,42.15-5.75,49.8,1.516Zm214.55,67.786c4.26,4.044,2.65,9.915-3.56,13.043l-2.68,1.349-23.1-7.296-23.09-7.297l2.62-1.315c13.24-6.631,42.16-5.75,49.81,1.516Zm-134.88-38.561c-27.49-3.445-47.18.485-76.63,15.293-22.27,11.195-26.33,14.366-27.28,21.299l-.33,2.351-12.3,6.206c-13.87,6.997-14.73,7.684-15.71,12.665-.65,3.308.92,6.49,4.48,9.043l2.58,1.856-12.65,6.672c-14.12,7.445-14.4,7.739-9.22,9.376c5.97,1.888,9.17,1.018,24.42-6.655l10.92-5.491l2.96.572c15.54,3.007,36.17-.74,54.29-9.857l11.57-5.823l4.63-.495c24.72-2.644,66.84-22.52,71-33.503c4.19-11.063-9-20.536-32.73-23.509Zm10.92,12.654c7.32,4.882,6.45,12.38-2.04,17.443l-3,1.794-29.24-9.239-29.25-9.24l3.7-1.576c17.5-7.478,48.01-7.06,59.83.818Zm-113-19.019c-32.22,13.908-73.577.842-46.99-14.846l4.89-2.886l24.01,7.587l24.02,7.587-5.93,2.558Zm218.37,66.137c-31.84,15.948-79.31,3.619-50.82-13.197l4.89-2.886l23.93,7.559l23.93,7.56-1.93.964Zm-126.45-19.372c-21.69,10.825-43.93,13.42-63.1,7.364-19.17-6.057-17.92-15.282,3.55-26.178l4.69-2.379l29.79,9.415l29.8,9.415-4.73,2.363Zm-148.74-37.417c4.3,1.359,9.05,2.651,10.55,2.871l2.72.399-5.42,2.361c-8.92,3.891-17.35,4.803-24.248,2.623-6.899-2.18-6.602-5.661.856-10.014l4.522-2.643l1.6.966c.88.531,5.12,2.077,9.42,3.437Zm214.55,67.786c4.3,1.359,9.05,2.651,10.54,2.871l2.73.399-5.42,2.362c-8.92,3.89-17.35,4.802-24.25,2.622s-6.6-5.66.85-10.014l4.53-2.643l1.6.966c.88.531,5.12,2.078,9.42,3.437Zm-135.57-5.935c-27,5.723-46.18-4.51-26.77-14.283c3.78-1.902,6.96-3.43,7.05-3.395.1.034,1.68,1.048,3.52,2.253c4.78,3.139,16.23,6.678,24.91,7.7l6.39.752-5.88,3.133c-4.36,2.325-6.74,3.315-9.22,3.84Zm-75.15-27.16c-26.55-4.124-58.621-1.493-84.063,6.897-11.58,3.819-70.758,34.016-73.078,37.29-1.983,2.799-1.698,6.348.706,8.795l1.884,1.917l74.869,23.806l74.872,23.806-36.28,18.259-36.278,18.259-59.193-18.702-59.193-18.703l29.02-14.783c33.134-16.88,32.162-16.197,25.882-18.181-6.547-2.068-4.29-2.934-42.505,16.3-32.566,16.39-33.494,16.891-33.403,18.032.093,1.155,1.088,1.487,68.63,22.827s68.578,21.65,71.421,21.422c2.819-.226,3.817-.7,43.305-20.575l40.424-20.343l9.72,2.885c13.5,4.003,23.15,4.385,36.48,1.441c7.46-1.649,67.64-31.528,74.32-36.896c17.73-14.263,12.08-30.819-13.24-38.821-7.22-2.279-9.97-2.275-14.54.024-4.28,2.154-3.63,3.204,3.88,6.281c18.71,7.663,22.07,18.949,8.95,30.031-2.43,2.048-7.64,4.902-29,15.888-43.58,22.414-38.07,21.728-77.25,9.607l-26.819-8.3l4.799-1.155c14.57-3.504,22.37-12.031,16.48-18.021l-1.88-1.916-39.102-12.513-39.104-12.512l17.823-8.97c19.044-9.585,19.793-10.093,17.401-11.797-1.829-1.306-6.487-1.969-9.492-1.352-4.405.905-46.073,22.441-45.967,23.759.091,1.131,1.088,1.487,28.03,9.999l27.936,8.827-11.166,5.619-11.166,5.62-34.81-11.012c-41.262-13.053-41.966-13.368-39.663-17.724c1.265-2.392,55.846-29.982,65.35-33.033c23.854-7.658,52.587-9.065,75.26-3.682c8.64,2.051,10.38,2.185,14.24,1.099c9.76-2.743,3.56-6.896-14.49-9.699Zm-93.536-25.916c-4.524-.354-4.93-.204-20.136,7.449-17.814,8.966-17.952,7.716,1.537,13.874c16.904,5.341,18.168,5.504,23.159,2.991c5.516-2.776,4.149-4.082-8.427-8.055l-8.828-2.79l9.421-4.741c9.535-4.799,11.41-6.4,8.549-7.304-.377-.119-.985-.431-1.353-.693-.368-.261-2.133-.591-3.922-.731Zm297.976,94.148c-4.37-.343-5.19-.072-15.59,5.165l-9.02,4.538-8.83-2.789c-12.91-4.081-18.76-4.261-22.89-.705-2.6,2.24-2.03,2.55,14.04,7.627c19.36,6.115,16.21,6.373,34.48-2.826c14.4-7.246,16.24-8.592,13.09-9.587-.38-.119-.99-.43-1.35-.692-.37-.262-2.14-.591-3.93-.731Zm-122.51-6.693c-4.6-.36-4.68-.33-24.32,9.556l-17.74,8.928-7.42-2.345c-9.99-3.156-19.05-2.123-18.38,2.096.3,1.932,21.88,8.829,26.46,8.461c7.52-.604,50.72-23.995,46.68-25.272-.38-.119-.99-.431-1.36-.693s-2.13-.591-3.92-.731Zm-97.43,11.649c5.62,7.347-13.592,11.71-30.682,6.966l-7.231-2.006l11.354-5.715l11.354-5.714l7.034,2.494c5.245,1.861,7.321,2.871,8.171,3.975Z" clip-rule="evenodd" fill="#fff" fill-rule="evenodd"/><path d="M478.759,317.642l-4.191.584-17.373,10.056-17.372,10.056-1.197-.725c-3.474-2.106-8.047-3.002-12.179-2.387-4.68.697-9.434,2.519-8.423,3.229.365.255,24.183,17.828,52.932,39.05l52.269,38.587l113.231,3.248c62.276,1.786,113.848,3.271,114.604,3.3c2.1.079,4.619-2.309,4.462-4.229-.141-1.695-4.089-2.953-10.517-3.35l-2.212-.137l17.372-10.055l17.373-10.056-.238-1.704c-.373-2.677-3.866-3.261-21.043-3.517-34.164-.511-50.079-1.507-74.787-4.68-43.969-5.649-85.076-3.739-111.475,5.178-1.702.575-3.298.994-3.547.931s.131-.789.848-1.613c11.114-12.808-.345-27.957-31.198-41.247-17.471-7.525-26.01-12.672-40.63-24.493-7.351-5.944-10.125-6.944-16.709-6.026Zm-74.838,22.589c-6.187.035-13.465,2.84-15.68,6.044-1.201,1.734-2.087,1.03,44.767,35.521c22.982,16.917,41.62,30.86,41.415,30.985-.202.124-32.893.927-72.645,1.784-76.749,1.654-74.949,1.576-77.462,3.342-2.882,2.025-1.399,2.628,19.457,7.909c25.591,6.48,18.275,6.058,90.559,5.221c34.581-.4,63.301-.619,63.824-.487.524.133,11.257,10.325,23.852,22.651c26.355,25.79,22.381,23.336,48.452,29.926c21.416,5.414,23.027,5.623,26.749,3.468c2.702-1.564,3.665-.365-22.864-28.476-13.485-14.291-24.345-26.076-24.133-26.192.214-.115,42.21,1.015,93.326,2.513c99.672,2.92,96.63,2.868,100.491,1.718c10.021-2.985,12.144-8.854,3.473-9.6-1.719-.148-54.083-1.73-116.367-3.516-62.281-1.786-113.583-3.333-114.001-3.439-.417-.105-24.416-17.66-53.33-39.01-57.599-42.528-54.431-40.393-59.883-40.362Z" clip-rule="evenodd" fill="#fff" fill-rule="evenodd"/><path d="M1317.24,227.673l-37.55,20.915-10.74-3.057l37.54-20.915l10.75,3.057Zm-4.3,8.877l9.92,2.823-3.23,1.803c2.84-.448,5.21-.613,7.1-.495c1.92.099,3.81.414,5.67.944c1.98.562,3.36,1.206,4.15,1.934.86.72,1.25,1.516,1.18,2.389-.06.709-.47,1.402-1.24,2.077s-1.84,1.391-3.2,2.149l-16.23,9.043-9.93-2.823l12.9-7.184c1.26-.703,2.16-1.298,2.71-1.786.61-.496.9-.946.85-1.35-.04-.347-.25-.644-.64-.893-.38-.248-.88-.461-1.5-.638-1.68-.478-3.44-.588-5.29-.33-1.77.25-3.5.846-5.2,1.789l-13.64,7.601-9.92-2.823l25.54-14.23Zm75.39,18.302l-29.28,16.31-10.75-3.056l29.28-16.311-8.83-2.511l8.27-4.604l28.4,8.078-8.27,4.605-8.82-2.511Zm24.72-3.107l9.92,2.823-19.02,10.596c2.85-.448,5.22-.612,7.1-.495c1.92.1,3.81.414,5.68.945c3.54,1.008,5.32,2.266,5.31,3.775.07,1.5-1.4,3.091-4.43,4.774l-16.23,9.043-9.92-2.823l12.89-7.185c1.3-.721,2.24-1.335,2.81-1.841.58-.506.83-.952.75-1.338-.18-.638-.89-1.134-2.14-1.487-1.68-.478-3.44-.589-5.28-.331-1.78.25-3.51.846-5.2,1.789l-13.65,7.601-9.92-2.823l41.33-23.023Zm32.12,30.047c.93-.796,1.27-1.553,1.01-2.269-.26-.717-1.12-1.283-2.58-1.699-1.54-.436-3.17-.592-4.88-.466-1.68.137-3.32.539-4.9,1.206l11.35,3.228Zm-16.85-.394c-3.89,2.164-3.82,3.817.2,4.961c2.16.614,4.58.632,7.27.057l9.6,2.729c-7.78,2.704-15.55,2.953-23.3.749-2.37-.676-4.23-1.47-5.57-2.383-1.31-.931-2.08-1.932-2.31-3.004-.2-1.061.15-2.162,1.04-3.305.9-1.143,2.37-2.288,4.43-3.435c2.12-1.183,4.4-2.143,6.82-2.878c2.46-.753,4.96-1.271,7.51-1.552s5.09-.327,7.62-.137c2.6.181,5.11.615,7.52,1.301c2.37.676,4.18,1.469,5.42,2.379c1.27.892,1.94,1.868,2.03,2.926.09,1.059-.42,2.186-1.51,3.382-1.07,1.178-2.71,2.386-4.94,3.625l-.94.527-20.89-5.942Zm85.5,10.286c-.31-.814-.84-1.498-1.62-2.053-.73-.573-1.65-1.015-2.75-1.327-1.39-.395-2.82-.551-4.29-.468-1.48.083-2.7.393-3.66.93-.66.369-.99.737-.98,1.102c0,.365.19.739.55,1.122.43.374.97.751,1.62,1.13.68.389,1.32.782,1.94,1.18c2.44,1.59,3.57,3.113,3.39,4.569-.12,1.448-1.6,2.967-4.46,4.557-1.92,1.073-4.03,1.94-6.32,2.601-2.26.672-4.64,1.124-7.16,1.358-2.45.226-4.98.219-7.58-.02-2.61-.21-5.17-.674-7.69-1.392-5.23-1.486-8.66-3.65-10.3-6.49l12.47-3.073c.32,1.179.95,2.167,1.89,2.966.94.798,2.18,1.416,3.71,1.852c1.75.5,3.42.665,4.99.498c1.61-.158,2.87-.495,3.8-1.013.57-.314.94-.614,1.12-.898.21-.303.23-.619.05-.95-.15-.349-.49-.726-1.04-1.132-.5-.395-1.16-.861-1.96-1.397-.99-.617-1.93-1.247-2.82-1.891-.81-.651-1.36-1.35-1.62-2.095-.23-.735-.07-1.529.47-2.382.6-.861,1.84-1.809,3.7-2.845c1.86-1.035,3.86-1.876,6.01-2.521c2.22-.653,4.47-1.104,6.74-1.352c2.34-.257,4.68-.302,7.03-.136c2.39.176,4.68.577,6.87,1.201c2.05.582,3.92,1.338,5.62,2.268c1.73.912,3.13,1.936,4.18,3.073l-11.9,3.028Zm25.21-4.101l9.92,2.823-19.02,10.596c2.85-.448,5.21-.613,7.1-.495c1.92.099,3.81.414,5.68.944c3.54,1.009,5.31,2.267,5.31,3.775.07,1.5-1.41,3.092-4.43,4.775l-16.23,9.042-9.92-2.823l12.89-7.184c1.3-.721,2.23-1.335,2.81-1.841s.83-.952.75-1.338c-.18-.638-.89-1.134-2.14-1.487-1.68-.479-3.44-.589-5.28-.331-1.78.25-3.51.846-5.2,1.789l-13.65,7.601-9.92-2.823l41.33-23.023Zm17.13,28.843c-.83.463-1.44.944-1.84,1.444-.37.482-.55.949-.53,1.401.05.462.32.886.78,1.271.51.395,1.22.722,2.13.982.88.25,1.85.4,2.92.452c1.1.063,2.19.024,3.27-.116c1.12-.13,2.19-.342,3.22-.636c1.06-.285,1.99-.649,2.78-1.093.8-.444,1.37-.912,1.7-1.404.4-.5.57-.982.52-1.444-.02-.452-.28-.875-.79-1.27-.46-.385-1.14-.702-2.01-.952-.92-.26-1.93-.421-3.03-.483-1.07-.052-2.16-.013-3.27.116-1.08.14-2.13.357-3.16.652-.99.276-1.89.636-2.69,1.08Zm25.2-3.517l9.98,2.838-25.54,14.23-9.98-2.838l2.84-1.581c-4.55.747-8.63.605-12.25-.424-2.04-.582-3.59-1.303-4.65-2.161-1.02-.877-1.55-1.84-1.61-2.888-.05-1.048.39-2.138,1.32-3.271.97-1.122,2.43-2.229,4.39-3.32c1.82-1.017,3.9-1.88,6.22-2.588c2.35-.727,4.77-1.256,7.24-1.587s4.91-.446,7.32-.346c2.45.082,4.72.42,6.8,1.012c3.51.998,5.3,2.444,5.38,4.339l2.54-1.415Zm13.25,14.453c-.83.462-1.45.944-1.85,1.444-.37.482-.54.949-.53,1.401.06.462.32.885.79,1.27.5.395,1.21.723,2.13.983.87.249,1.84.4,2.91.452c1.1.062,2.19.024,3.27-.116c1.12-.13,2.19-.342,3.22-.637c1.06-.284,1.99-.648,2.79-1.092.79-.444,1.36-.912,1.69-1.404.4-.501.57-.982.52-1.444-.02-.452-.28-.876-.78-1.271-.47-.385-1.15-.702-2.02-.951-.88-.25-1.87-.406-2.97-.468-1.07-.052-2.16-.013-3.28.116-1.08.14-2.15.352-3.21.637-.99.276-1.89.636-2.68,1.08Zm40.98-12.311l9.98,2.839-41.33,23.023-9.98-2.839l2.84-1.581c-4.55.747-8.63.606-12.24-.423-2.05-.583-3.59-1.312-4.61-2.189s-1.55-1.84-1.6-2.888.38-2.138,1.31-3.271c.97-1.122,2.41-2.22,4.34-3.292c1.83-1.017,3.88-1.885,6.16-2.604c2.36-.727,4.77-1.256,7.24-1.587s4.92-.446,7.33-.345c2.49.092,4.77.434,6.85,1.027c3.51.998,5.31,2.444,5.38,4.338l18.33-10.208Zm12.44,24.45c.93-.796,1.27-1.553,1.01-2.269-.26-.717-1.12-1.283-2.58-1.699-1.54-.436-3.16-.592-4.88-.465-1.68.136-3.31.538-4.9,1.205l11.35,3.228Zm-16.85-.394c-3.88,2.164-3.82,3.818.21,4.961c2.15.614,4.57.633,7.26.057l9.6,2.729c-7.78,2.704-15.54,2.954-23.29.749-2.38-.676-4.24-1.47-5.58-2.383-1.31-.931-2.08-1.932-2.31-3.004-.2-1.06.15-2.162,1.05-3.305.89-1.143,2.36-2.288,4.42-3.435c2.13-1.183,4.4-2.142,6.82-2.878c2.46-.753,4.96-1.271,7.51-1.552s5.09-.326,7.62-.137c2.6.181,5.11.615,7.52,1.301c2.38.676,4.18,1.469,5.42,2.38c1.27.892,1.95,1.867,2.03,2.925.09,1.059-.41,2.186-1.51,3.382-1.07,1.178-2.71,2.386-4.94,3.625l-.94.527-20.89-5.942Zm-397.59-47.762l44.56-18.918l10.64,3.025-11.74,13.506l28.24-8.811l10.64,3.025-30.53,22.912-10.69-3.042l18.04-13.052-31.37,9.263-4.27-1.217l12.34-14.674-25.17,11.025-10.69-3.042Zm93.23,12.651c.93-.797,1.26-1.553,1-2.27-.26-.716-1.12-1.282-2.58-1.698-1.53-.437-3.16-.592-4.88-.466-1.68.136-3.31.538-4.89,1.205l11.35,3.229Zm-16.86-.394c-3.88,2.163-3.81,3.817.21,4.961c2.16.613,4.58.632,7.27.056l9.59,2.73c-7.78,2.703-15.54,2.953-23.29.749-2.38-.676-4.23-1.47-5.58-2.383-1.31-.932-2.08-1.933-2.31-3.004-.19-1.061.16-2.163,1.05-3.306s2.37-2.288,4.43-3.434c2.12-1.184,4.39-2.143,6.82-2.878c2.46-.754,4.96-1.271,7.51-1.552c2.54-.281,5.08-.327,7.61-.138c2.6.182,5.11.615,7.52,1.301c2.38.676,4.19,1.469,5.42,2.38c1.27.892,1.95,1.867,2.04,2.926.09,1.058-.42,2.186-1.52,3.382-1.06,1.178-2.71,2.386-4.93,3.625l-.95.527-20.89-5.942Zm40.86-.406l9.92,2.823-3.24,1.803c2.85-.447,5.22-.612,7.1-.494c1.92.099,3.81.414,5.68.944c1.97.562,3.35,1.206,4.15,1.934.86.72,1.25,1.516,1.17,2.389-.05.709-.47,1.402-1.24,2.076-.77.675-1.83,1.392-3.2,2.15l-16.23,9.043-9.92-2.823l12.89-7.184c1.27-.703,2.17-1.298,2.71-1.786.62-.496.9-.946.85-1.35-.04-.347-.25-.645-.63-.893s-.88-.461-1.51-.638c-1.68-.478-3.44-.588-5.28-.33-1.78.249-3.51.846-5.2,1.789l-13.65,7.6-9.92-2.823l25.55-14.23Zm39.96,17.696l-18.03,10.042-9.92-2.823l18.03-10.042-3.29-.935l7.51-4.189l3.29.936l7.67-4.272l9.93,2.823-7.67,4.272l5.64,1.606-7.51,4.189-5.65-1.607Zm14.1,8.329c-.86.481-1.49.972-1.89,1.472-.33.492-.49.964-.47,1.416.05.462.31.886.78,1.271.5.395,1.2.717,2.07.967.88.249,1.85.4,2.92.452c1.1.062,2.19.024,3.27-.116c1.12-.13,2.19-.342,3.21-.637c1.1-.303,2.06-.685,2.89-1.148.8-.443,1.36-.911,1.7-1.404.4-.5.57-.982.52-1.444-.02-.452-.28-.875-.79-1.27-.47-.385-1.14-.702-2.02-.952-.87-.249-1.86-.405-2.97-.468-1.06-.051-2.15-.013-3.27.117-1.08.14-2.15.352-3.21.636-1.03.295-1.94.664-2.74,1.108Zm-10.37-3.034c1.89-1.054,4.07-1.915,6.54-2.582c2.5-.685,5.1-1.148,7.79-1.387c2.73-.258,5.46-.29,8.21-.096c2.78.204,5.39.655,7.84,1.351c2.41.686,4.3,1.515,5.65,2.485c1.41.963,2.26,2,2.53,3.11.34,1.102.08,2.245-.77,3.427-.82,1.164-2.24,2.31-4.26,3.438-2.03,1.128-4.33,2.039-6.9,2.732-2.5.686-5.11,1.157-7.84,1.415-2.69.24-5.43.243-8.21.01-2.75-.223-5.35-.683-7.8-1.379-2.41-.687-4.31-1.506-5.69-2.458s-2.21-1.983-2.48-3.094c-.24-1.1.07-2.241.93-3.424.88-1.2,2.37-2.383,4.46-3.548Zm52.03,4.242l9.93,2.823-4.18,2.33c2.58-.549,5.04-.827,7.37-.834c2.37-.026,4.57.252,6.62.835.26.072.53.15.82.233.33.094.67.217,1,.368l-8.61,4.799c-.72-.707-1.85-1.279-3.38-1.716-2.31-.655-4.67-.798-7.1-.428-2.37.362-4.74,1.209-7.13,2.54l-10.96,6.103-9.92-2.823l25.54-14.23Zm37.45,16.184c-.96-1.001-2.32-1.751-4.08-2.25-.91-.26-1.83-.381-2.74-.362-.88.029-1.61.2-2.17.515-.3.166-.51.315-.64.447-.05.124-.02.273.11.449.16.186.47.399.92.64.49.25,1.13.572,1.91.963c2.25,1.057,3.4,2.139,3.46,3.245.09,1.087-.86,2.186-2.86,3.295-1.49.833-3.16,1.488-5.02,1.967-1.85.478-3.78.782-5.77.912-1.97.111-3.99.053-6.07-.175-2.11-.209-4.15-.594-6.12-1.156-3.8-1.081-6.57-2.692-8.3-4.833l9.99-2.522c1.05,1.752,2.82,2.982,5.3,3.689.92.26,1.85.371,2.8.334s1.71-.213,2.27-.527c.33-.185.54-.349.63-.491.16-.15.18-.313.05-.489-.09-.194-.36-.411-.82-.651-.38-.249-.94-.549-1.69-.901-2.51-1.188-3.83-2.264-3.98-3.228-.08-.972.86-2.003,2.82-3.094c1.43-.795,3-1.424,4.71-1.886c1.75-.481,3.57-.788,5.46-.92c1.9-.132,3.83-.099,5.79.097c2.01.207,3.96.58,5.86,1.121c3.1.884,5.57,2.047,7.4,3.489l-9.22,2.322Zm31.61-9.823l9.93,2.823-19.03,10.596c2.85-.447,5.22-.612,7.1-.494c1.92.099,3.82.414,5.68.944c3.54,1.009,5.32,2.267,5.31,3.775.07,1.5-1.4,3.091-4.42,4.774l-16.24,9.043-9.92-2.823l12.9-7.184c1.29-.721,2.23-1.335,2.8-1.841.58-.507.83-.953.75-1.339-.18-.637-.89-1.133-2.13-1.487-1.69-.478-3.45-.588-5.29-.33-1.77.249-3.51.846-5.2,1.789l-13.64,7.6-9.93-2.822l41.33-23.024Zm30.55,21.973l-25.55,14.23-9.92-2.823l25.54-14.23l9.93,2.823Zm-.77-8.474c.69-.389,1.49-.708,2.38-.957.92-.269,1.87-.459,2.85-.573.97-.113,1.92-.15,2.85-.111.96.05,1.82.184,2.59.402.76.219,1.34.495,1.74.83.43.346.66.721.71,1.125.05.405-.1.824-.44,1.259-.3.416-.8.818-1.5,1.206-.7.389-1.51.717-2.43.985-.89.25-1.82.431-2.8.545-.98.113-1.94.145-2.9.095-.93-.039-1.77-.168-2.54-.386s-1.37-.5-1.8-.846c-.39-.335-.61-.705-.65-1.109-.05-.405.08-.815.38-1.231.34-.435.86-.846,1.56-1.234Zm17.12,23.939c.8-.444,1.38-.907,1.75-1.389.44-.49.63-.966.58-1.428-.06-.462-.33-.891-.84-1.286-.44-.404-1.11-.735-2.02-.995-.88-.25-1.85-.4-2.92-.452s-2.16-.013-3.27.116c-1.08.14-2.17.361-3.27.664-1.02.295-1.93.664-2.73,1.108s-1.38.907-1.75,1.389-.52.954-.47,1.416c.09.444.35.867.78,1.271.51.395,1.2.717,2.08.967.88.249,1.85.4,2.91.452c1.07.052,2.14.008,3.22-.132c1.12-.13,2.19-.342,3.22-.637c1.06-.284,1.97-.639,2.73-1.064Zm-37.94,10.618l-9.92-2.823l38.29-21.331l9.92,2.823-2.84,1.581c4.55-.746,8.65-.6,12.3.44c2.01.572,3.51,1.305,4.5,2.201c1.05.887,1.61,1.855,1.66,2.903s-.41,2.133-1.37,3.256c-.93,1.132-2.34,2.225-4.23,3.28-1.9,1.054-4.02,1.93-6.38,2.628-2.32.709-4.73,1.223-7.24,1.543-2.47.331-4.91.446-7.33.346-2.41-.101-4.63-.437-6.64-1.008-3.51-.999-5.34-2.441-5.48-4.327l-15.24,8.488Z" fill="#fff"/></g></g></svg>
